{"title":"Exam.2009.1080p-AVCHD-Reupload","uid":8079641,"size":7036108193,"categoryP":"video","categoryS":"hd___movies","magnet":"?xt=urn:btih:032c339022c26b20d6d38bd06af19a0840f8f6eb&amp;dn=Exam.2009.1080p-AVCHD-Reupload&amp;tr=udp%3A%2F%2Ftracker.openbittorrent.com%3A80&amp;tr=udp%3A%2F%2Fopen.demonii.com%3A1337&amp;tr=udp%3A%2F%2Ftracker.coppersurfer.tk%3A6969&amp;tr=udp%3A%2F%2Fexodus.desync.com%3A6969","seeders":1,"leechers":1,"uploader":"imravi1","files":14,"time":1359470726,"description":" &lt;a href=&quot;\nhttp://www.imdb.com/title/tt1258197&quot; rel=&quot;nofollow&quot; target=&quot;_NEW&quot;&gt;\nhttp://www.imdb.com/title/tt1258197&lt;/a&gt;\n\nIMDB Rating : 6.8\n\nAnother re upload of a old dead torrent. All credits to original up loader only.\n\nPlease reseed after download. \n\nMy upload speed is only 512 kbps (adsl) so please keep patience.\nI will seed the torrent 24x7 for some weeks. \n\nExam.2009.1080p.BluRay.x264-AVCHD.mkv\nFormat : Matroska\nFormat version : Version 2\nFile size : 6.55 GiB\nDuration : 1h 36mn\nOverall bit rate : 9 684 Kbps\nEncoded date : UTC 2010-06-06 06:29:16\nWriting application : mkvmerge v3.2.0 ('Beginnings') built on Feb 12 2010 16:46:17\nWriting library : libebml v0.7.9 + libmatroska v0.8.1\n\nVideo\nID : 1\nFormat : AVC\nFormat/Info : Advanced Video Codec\nFormat profile : &lt;a class=&quot;__cf_email__&quot; href=&quot;/cdn-cgi/l/email-protection&quot; data-cfemail=&quot;80c8e9e7e8c0ccb4aeb1&quot;&gt;[email&amp;#160;protected]&lt;/a&gt;&lt;script cf-hash='f9e31' type=&quot;text/javascript&quot;&gt;\n/* &lt;![CDATA[ */!function(){try{var t=&quot;currentScript&quot;in document?document.currentScript:function(){for(var t=document.getElementsByTagName(&quot;script&quot;),e=t.length;e--;)if(t[e].getAttribute(&quot;cf-hash&quot;))return t[e]}();if(t&amp;&amp;t.previousSibling){var e,r,n,i,c=t.previousSibling,a=c.getAttribute(&quot;data-cfemail&quot;);if(a){for(e=&quot;&quot;,r=parseInt(a.substr(0,2),16),n=2;a.length-n;n+=2)i=parseInt(a.substr(n,2),16)^r,e+=String.fromCharCode(i);e=document.createTextNode(e),c.parentNode.replaceChild(e,c)}}}catch(u){}}();/* ]]&gt; */&lt;/script&gt;\nFormat settings, CABAC : Yes\nFormat settings, ReFrames : 5 frames\nCodec ID : V_MPEG4/ISO/AVC\nDuration : 1h 36mn\nBit rate : 9 047 Kbps\nWidth : 1 920 pixels\nHeight : 816 pixels\nDisplay aspect ratio : 2.35:1\nFrame rate : 25.000 fps\nColor space : YUV\nChroma subsampling : 4:2:0\nBit depth : 8 bits\nScan type : Progressive\nBits/(Pixel*Frame) : 0.231\nStream size : 5.99 GiB (91%)\nWriting library : x264 core 98 r1629 2e81ce1\n\nLanguage : English\nDefault : No\nForced : No\n\nAudio\nID : 2\nFormat : AC-3\nFormat/Info : Audio Coding 3\nMode extension : CM (complete main)\nCodec ID : A_AC3\nDuration : 1h 36mn\nBit rate mode : Constant\nBit rate : 640 Kbps\nChannel(s) : 6 channels\nChannel positions : Front: L C R, Side: L R, LFE\nSampling rate : 48.0 KHz\nBit depth : 16 bits\nCompression mode : Lossy\nStream size : 443 MiB (7%)\nDefault : Yes\nForced : No\n\nText\nID : 3\nFormat : UTF-8\nCodec ID : S_TEXT/UTF8\nCodec ID/Info : UTF-8 Plain Text\nDefault : Yes\nForced : No","torrent":{"xt":"urn:btih:032c339022c26b20d6d38bd06af19a0840f8f6eb","amp;dn":"Exam.2009.1080p-AVCHD-Reupload","amp;tr":["udp%3A%2F%2Ftracker.openbittorrent.com%3A80","udp%3A%2F%2Fopen.demonii.com%3A1337","udp%3A%2F%2Ftracker.coppersurfer.tk%3A6969","udp%3A%2F%2Fexodus.desync.com%3A6969"],"infoHash":"032c339022c26b20d6d38bd06af19a0840f8f6eb","infoHashBuffer":{"type":"Buffer","data":[3,44,51,144,34,194,107,32,214,211,139,208,106,241,154,8,64,248,246,235]},"announce":[],"urlList":[]}}